<?xml version="1.0" encoding="utf-8"?>
<!-- Generator: Adobe Illustrator 22.0.1, SVG Export Plug-In . SVG Version: 6.00 Build 0)  -->
<svg version="1.1" id="Layer_1" xmlns="http://www.w3.org/2000/svg" xmlns:xlink="http://www.w3.org/1999/xlink" x="0px" y="0px"
	 viewBox="0 0 546 102.9" style="enable-background:new 0 0 546 102.9;" xml:space="preserve">
<style type="text/css">
	.st0{fill:#ffffff;}
</style>
<g>
	<g id="Layer_x0020_1">
		<path class="st0" d="M91.4,34l3.5,4.9C107,37.6,120,36,134,34c0.1-0.1,0.2-0.2,0.3-0.3c0-0.4-1.7-1.1-5.2-1.9L91.4,34L91.4,34z M0,86.2
			c6.4,6.2,10.7,9.2,13.1,9.1c5.6-0.3,49.7-2,132.3-5c3.8,1.3,7.6,2.5,11.3,3.6c8.6,2.3,16.2,3.5,22.7,3.6
			c18.7,0.2,32.3-2.3,41.1-7.5c-6.8,0.1-10.8-1.3-11.7-4.1c-0.3-0.7-0.5-1.4-0.5-2.2c0-4.8,3.4-8,10.1-9.5
			c6.5-1.5,10.8-0.1,12.9,4.2c1.1,2.3,1,4.2-0.5,5.8c1.2-0.6,2.6-2.5,3.9-5.4c0.6-7.2-11.3-14.9-35.8-23.2
			c-9.3-12.4-19-18.4-29.2-17.8c-10.9,0.6-24.5,2.1-40.6,4.5c-13.2,2-23.3,2.9-30.4,2.7c-2.9-0.1-12.2-15.1-28-44.9
			c-2.8-0.1-5,0-6.4,0.3c-1.2,0.3-2.7,0.7-4.5,1.2L67,35.5l-48,4.9c0.4,0.9,1.5,1.7,3.3,2.7c4.2,0.1,19.9-0.4,47-1.4l3.8,13.6
			c2.7,2.6,8.1,7.3,16.1,14.1c3.5,2.6,8.5,5.5,15.2,8.8L0,86.2L0,86.2z M210.1,58.1c2.8,1,7.2,2.8,13,5.5c2.3,1.3,5.3,3.6,9.1,6.7
			c11.8-6.8,27-15.4,45.7-25.7c0.5-0.3,0.7-0.6,0.7-1c0-1.4-6.8-2.5-20.5-3.3L210.1,58.1z M213.1,84.8c0,2.8,4.1,4.2,12.3,4.2
			c3.6,0,5.3-1.1,5.3-3.3c0-5.6-3.4-8.2-10.2-7.8C215.6,78.2,213.1,80.5,213.1,84.8z M134.3,62.6l3.3-13.9l12-1.5L144,64L134.3,62.6
			z M148.2,64.8l4.9-17.7l1.9,18.7L148.2,64.8z M156,46.3c8-2.6,14.8-3.9,20.5-3.9c2.3,0,4.2,0.2,5.8,0.6c3.3,0.9,7.8,5.1,13.6,12.6
			c-3,0.1-8.3,0.6-15.7,1.5c-6.8,1.4-14,3.9-21.8,7.5L156,46.3L156,46.3z"/>
	</g>
	<g>
		<path class="st0" d="M263.3,96.2v-16l-5,16h-6.8l-5.1-16v16h-8.1V70.5h12.7l4.3,12.3l3.9-12.3h14.6v25.8H263.3z"/>
		<path class="st0" d="M292.2,95.8c-1.7,4.9-3.2,7.1-8.6,7.1c-2.2,0-3.9-0.4-5.3-1l0.2-3.8c0.5,0.1,0.9,0.2,1.7,0.2c1.2,0,2.1-0.5,2.4-1.5
			L275,78.2h9.3l2.8,10.5l2.9-10.5h8.3L292.2,95.8z"/>
		<path class="st0" d="M314.6,87.2h-4.7v9h-10.4V70.5h14.8c8.4,0,11.9,3.7,11.9,8.7C326.2,83.7,322.9,87.2,314.6,87.2z M312.9,77.8h-3v4.9h3
			c2,0,2.9-1.2,2.9-2.6S314.6,77.8,312.9,77.8z"/>
		<path class="st0" d="M327.8,96.2V70.5h10.1v25.8H327.8z"/>
		<path class="st0" d="M363.5,95c-1.1,1.1-3.8,1.6-5.4,1.6c-2.6,0-4.7-1.3-5.5-3.5c-1.4,2.5-4.3,3.5-7.2,3.5c-3.6,0-5.4-1.9-5.4-4.9
			c0-3.7,3.6-4.8,8.1-4.8c1.1,0,2.2,0.1,3.3,0.2v-3.4c0-0.7-0.3-1-0.8-1c-0.5,0-0.9,0.3-0.9,1c0,0.3,0.1,0.8,0.3,1.2l-8.7,1.9
			c-0.5-1-0.8-2-0.8-3c0-3.4,3.6-5.9,10.7-5.9c6.6,0,10.2,2.2,10.2,7.4v5.6c0,0.9,0.2,1.2,0.8,1.2c0.2,0,0.7,0,1.1-0.3V95z
			 M351.6,89.8c-1.8,0.2-2.2,0.9-2.2,1.5c0,0.6,0.3,1,1.1,1c0.8,0,1.1-0.5,1.1-1.4V89.8z"/>
		<path class="st0" d="M377.8,96.2v-9.8c0-0.8-0.4-1.3-1-1.3c-0.9,0-1.4,1-1.4,2.7v8.4h-10.1v-18h7.7l1.5,5.2c1-3.1,3.2-5.6,6.8-5.6
			c4.5,0,6.5,3.2,6.5,9.1v9.3H377.8z"/>
		<path class="st0" d="M399.9,88.2c0.2,2.9,0.9,3.1,1.5,3.1c0.7,0,1-0.5,1-1.2c0-0.2,0-0.4-0.1-0.7l7.9,0.7c0.1,0.5,0.2,0.9,0.2,1.3
			c0,3.8-4.4,5-10.1,5c-7.5,0-10.6-3.6-10.6-9.4c0-5.1,3.4-9.4,10.9-9.4c4.9,0,9.8,1.9,9.8,7.8c0,0.8-0.1,1.7-0.3,2.6H399.9z
			 M399.9,85.7h2.3c0-0.4,0.1-0.7,0.1-1c0-1.4-0.5-2.1-1.1-2.1C400.5,82.6,399.9,83,399.9,85.7z"/>
		<path class="st0" d="M429.9,96.2h-17V70.5h16.5c6.3,0,8.5,2.9,8.5,5.8c0,3.9-2.9,6.3-8.7,6.8h0.5c5.6,0,9,2.5,9,6.3
			C438.7,93.4,435.6,96.2,429.9,96.2z M425.7,77h-2.3v4.2h2.1c2,0,2.4-1.4,2.4-2.2C427.8,78,427.2,77,425.7,77z M425.9,85.1h-2.5
			v4.6h2.7c1.8,0,2.6-1,2.6-2.4C428.7,86,427.7,85.1,425.9,85.1z"/>
		<path class="st0" d="M450.4,78.2V88c0,0.8,0.4,1.3,1,1.3c0.9,0,1.4-1,1.4-2.7v-8.4h10.1v18h-7.7l-1.5-5.2c-1,3.1-3.2,5.6-6.8,5.6
			c-4.5,0-6.5-3.2-6.5-9.1v-9.3H450.4z"/>
		<path class="st0" d="M465.6,76.9v-6.5h10.1v6.5H465.6z M465.6,96.2v-18h10.1v18H465.6z"/>
		<path class="st0" d="M478.3,96.2V70.5h10.1v25.8H478.3z"/>
		<path class="st0" d="M497.7,77.8c2.7,0,4.6,1.7,5.5,3.9V70.5h10.1v25.8h-5.8l-1.9-4.4c-1,2.7-3.4,4.8-7.1,4.8c-6,0-8-4.8-8-9.4
			C490.3,82,492.6,77.8,497.7,77.8z M501.9,91c1,0,1.3-1,1.3-3.8c0-2.8-0.2-3.8-1.3-3.8c-1.1,0-1.5,1-1.5,3.8
			C500.4,90.3,500.9,91,501.9,91z"/>
	</g>
	<path class="st0" d="M540.6,68l-4.6,4.5c-0.5,2.3,2.8,5.6,5.1,5.1l4.6-4.5c0.2,0.7,0.3,1.4,0.3,2.1c0,1.9-0.7,3.8-2.2,5.3
		c-1.6,1.6-3.8,2.3-6,2.2c-1.1-0.1-2.2,0.3-3,1.1l-11.7,11.6c-0.7,0.7-1.6,1-2.5,1c-2,0-3.6-1.6-3.6-3.6c0-0.9,0.4-1.8,1.1-2.4
		l11.7-11.6c0.8-0.8,1.2-1.9,1.1-3c-0.2-2.1,0.6-4.3,2.2-5.9c1.5-1.5,3.4-2.2,5.4-2.2C539.1,67.7,539.9,67.8,540.6,68z M519.4,92.9
		c0,0.7,0.5,1.2,1.2,1.2c0.7,0,1.2-0.5,1.2-1.2c0-0.7-0.5-1.2-1.2-1.2C519.9,91.7,519.4,92.2,519.4,92.9z"/>
</g>
</svg>
